# Blender v2.79 (sub 0) OBJ File: 'bullet.blend'
# www.blender.org
mtllib bullet.mtl
o Cone_Cone.001
v 0.000000 2.097322 -1.000000
v 0.951057 2.097322 -0.309017
v 0.000000 4.097322 0.000000
v 0.587785 2.097322 0.809017
v -0.587785 2.097322 0.809017
v -0.951056 2.097322 -0.309017
v 0.951057 0.028910 -0.309017
v 0.000000 0.028910 -0.000000
v 0.000000 0.028910 -1.000000
v 0.587785 0.028910 0.809017
v -0.587785 0.028910 0.809017
v -0.951056 0.028910 -0.309017
vn -0.5878 0.0000 -0.8090
vn 0.5449 0.3750 -0.7500
vn 0.9511 0.0000 0.3090
vn 0.8817 0.3750 0.2865
vn -0.0000 0.0000 1.0000
vn -0.0000 0.3750 0.9270
vn -0.9511 0.0000 0.3090
vn -0.8817 0.3750 0.2865
vn 0.5878 0.0000 -0.8090
vn -0.5449 0.3750 -0.7500
vn 0.0000 -1.0000 0.0000
usemtl None
s off
f 6//1 1//1 9//1 12//1
f 1//2 3//2 2//2
f 2//3 4//3 10//3 7//3
f 2//4 3//4 4//4
f 4//5 5//5 11//5 10//5
f 4//6 3//6 5//6
f 5//7 6//7 12//7 11//7
f 5//8 3//8 6//8
f 1//9 2//9 7//9 9//9
f 6//10 3//10 1//10
f 8//11 9//11 7//11
f 8//11 7//11 10//11
f 8//11 10//11 11//11
f 8//11 11//11 12//11
f 8//11 12//11 9//11
