# Blender v2.79 (sub 0) OBJ File: 'Tank.blend'
# www.blender.org
mtllib enemy_barrel.mtl
o Tank_Barrel_Cylinder.005
v 0.228132 -0.040226 0.551476
v 0.250315 -0.044138 1.000195
v 0.079031 0.217136 0.000000
v 0.135924 0.373449 2.222632
v 0.148530 0.177011 0.000000
v 0.255454 0.304439 2.222632
v 0.200114 0.115536 -0.000000
v 0.344173 0.198708 2.222632
v 0.227561 0.040125 -0.000000
v 0.391379 0.069010 2.222632
v 0.227561 -0.040126 0.000000
v 0.391379 -0.069010 2.222632
v 0.200114 -0.115536 -0.000000
v 0.344173 -0.198708 2.222632
v 0.148530 -0.177012 -0.000000
v 0.255454 -0.304439 2.222632
v 0.079031 -0.217136 -0.000000
v 0.135924 -0.373449 2.222632
v 0.304731 -0.053733 1.478542
v 0.228132 0.040226 0.551476
v 0.250315 0.044137 1.000195
v 0.304731 0.053732 1.478542
v 0.200616 0.115825 0.551476
v 0.220124 0.127088 1.000195
v 0.267976 0.154716 1.478542
v 0.148903 0.177455 0.551476
v 0.163382 0.194710 1.000195
v 0.198899 0.237038 1.478542
v 0.079230 0.217681 0.551476
v 0.086934 0.238848 1.000195
v 0.105832 0.290770 1.478542
v 0.267976 -0.154716 1.478542
v 0.220124 -0.127089 1.000195
v 0.200616 -0.115826 0.551476
v 0.198899 -0.237039 1.478542
v 0.163382 -0.194711 1.000195
v 0.148903 -0.177455 0.551476
v 0.105832 -0.290771 1.478542
v 0.086934 -0.238848 1.000195
v 0.079230 -0.217681 0.551476
v 0.180481 -0.031824 0.900543
v 0.198030 -0.034918 1.255535
v 0.062523 0.171781 0.072060
v 0.107533 0.295444 2.222632
v 0.117505 0.140038 0.072060
v 0.202096 0.240848 2.222632
v 0.158315 0.091403 0.072060
v 0.272283 0.157202 2.222632
v 0.180029 0.031744 0.072060
v 0.309629 0.054596 2.222632
v 0.180029 -0.031744 0.072060
v 0.309629 -0.054596 2.222632
v 0.158315 -0.091403 0.072060
v 0.272283 -0.157203 2.222632
v 0.117505 -0.140038 0.072060
v 0.202096 -0.240849 2.222632
v 0.062523 -0.171782 0.072060
v 0.107533 -0.295444 2.222632
v 0.241079 -0.042509 1.633966
v 0.180481 0.031823 0.900543
v 0.198030 0.034918 1.255535
v 0.241079 0.042508 1.633966
v 0.158712 0.091632 0.900543
v 0.174145 0.100543 1.255535
v 0.212002 0.122399 1.633966
v 0.117800 0.140388 0.900543
v 0.129255 0.154040 1.255535
v 0.157353 0.187526 1.633966
v 0.062680 0.172212 0.900543
v 0.068775 0.188958 1.255535
v 0.083726 0.230035 1.633966
v 0.212002 -0.122399 1.633966
v 0.174145 -0.100543 1.255535
v 0.158712 -0.091632 0.900543
v 0.157353 -0.187526 1.633966
v 0.129255 -0.154040 1.255535
v 0.117800 -0.140389 0.900543
v 0.083726 -0.230036 1.633966
v 0.068775 -0.188958 1.255535
v 0.062680 -0.172212 0.900543
v -0.228132 -0.040226 0.551476
v -0.250315 -0.044138 1.000195
v 0.000000 0.231072 0.000000
v 0.000000 0.397416 2.222632
v -0.079031 0.217136 0.000000
v -0.135924 0.373449 2.222632
v -0.148530 0.177011 0.000000
v -0.255454 0.304439 2.222632
v -0.200114 0.115536 -0.000000
v -0.344173 0.198708 2.222632
v -0.227561 0.040125 -0.000000
v -0.391379 0.069010 2.222632
v -0.227561 -0.040126 0.000000
v -0.391379 -0.069010 2.222632
v -0.200114 -0.115536 -0.000000
v -0.344173 -0.198708 2.222632
v -0.148530 -0.177012 -0.000000
v -0.255454 -0.304439 2.222632
v -0.079031 -0.217136 -0.000000
v -0.135924 -0.373449 2.222632
v 0.000000 -0.231072 -0.000000
v 0.000000 -0.397416 2.222632
v -0.304731 -0.053733 1.478542
v -0.228132 0.040226 0.551476
v -0.250315 0.044137 1.000195
v -0.304731 0.053732 1.478542
v -0.200616 0.115825 0.551476
v -0.220124 0.127088 1.000195
v -0.267976 0.154716 1.478542
v -0.148903 0.177455 0.551476
v -0.163382 0.194710 1.000195
v -0.198899 0.237038 1.478542
v -0.079230 0.217681 0.551476
v -0.086934 0.238848 1.000195
v -0.105832 0.290770 1.478542
v 0.000000 0.309431 1.478542
v 0.000000 0.254177 1.000195
v 0.000000 0.231651 0.551476
v -0.267976 -0.154716 1.478542
v -0.220124 -0.127089 1.000195
v -0.200616 -0.115826 0.551476
v -0.198899 -0.237039 1.478542
v -0.163382 -0.194711 1.000195
v -0.148903 -0.177455 0.551476
v -0.105832 -0.290771 1.478542
v -0.086934 -0.238848 1.000195
v -0.079230 -0.217681 0.551476
v 0.000000 -0.309432 1.478542
v 0.000000 -0.254177 1.000195
v 0.000000 -0.231652 0.551476
v -0.180481 -0.031824 0.900543
v -0.198030 -0.034918 1.255535
v 0.000000 0.182806 0.072060
v 0.000000 0.314404 2.222632
v -0.062523 0.171781 0.072060
v -0.107533 0.295444 2.222632
v -0.117505 0.140038 0.072060
v -0.202096 0.240848 2.222632
v -0.158315 0.091403 0.072060
v -0.272283 0.157202 2.222632
v -0.180029 0.031744 0.072060
v -0.309629 0.054596 2.222632
v -0.180029 -0.031744 0.072060
v -0.309629 -0.054596 2.222632
v -0.158315 -0.091403 0.072060
v -0.272283 -0.157203 2.222632
v -0.117505 -0.140038 0.072060
v -0.202096 -0.240849 2.222632
v -0.062523 -0.171782 0.072060
v -0.107533 -0.295444 2.222632
v 0.000000 -0.182806 0.072060
v 0.000000 -0.314405 2.222632
v -0.241079 -0.042509 1.633966
v -0.180481 0.031823 0.900543
v -0.198030 0.034918 1.255535
v -0.241079 0.042508 1.633966
v -0.158712 0.091632 0.900543
v -0.174145 0.100543 1.255535
v -0.212002 0.122399 1.633966
v -0.117800 0.140388 0.900543
v -0.129255 0.154040 1.255535
v -0.157353 0.187526 1.633966
v -0.062680 0.172212 0.900543
v -0.068775 0.188958 1.255535
v -0.083726 0.230035 1.633966
v 0.000000 0.244798 1.633966
v 0.000000 0.201085 1.255535
v 0.000000 0.183264 0.900543
v -0.212002 -0.122399 1.633966
v -0.174145 -0.100543 1.255535
v -0.158712 -0.091632 0.900543
v -0.157353 -0.187526 1.633966
v -0.129255 -0.154040 1.255535
v -0.117800 -0.140389 0.900543
v -0.083726 -0.230036 1.633966
v -0.068775 -0.188958 1.255535
v -0.062680 -0.172212 0.900543
v 0.000000 -0.244798 1.633966
v 0.000000 -0.201085 1.255535
v 0.000000 -0.183265 0.900543
vt 0.829479 0.244314
vt 0.826798 0.141098
vt 0.845631 0.140972
vt 0.844485 0.244192
vt 0.831217 0.312877
vt 0.844073 0.312796
vt 0.864448 0.141545
vt 0.859480 0.244581
vt 0.832766 0.377988
vt 0.844263 0.377870
vt 0.883221 0.142818
vt 0.874429 0.245483
vt 0.834398 0.454106
vt 0.845072 0.453963
vt 0.901921 0.144793
vt 0.889298 0.246899
vt 0.856908 0.313048
vt 0.920518 0.147471
vt 0.904054 0.248830
vt 0.855740 0.377936
vt 0.938984 0.150856
vt 0.918664 0.251281
vt 0.855748 0.453937
vt 0.957289 0.154952
vt 0.933092 0.254257
vt 0.869687 0.313633
vt 0.975403 0.159763
vt 0.947307 0.257765
vt 0.867176 0.378184
vt 0.993299 0.165296
vt 0.961293 0.261815
vt 0.866426 0.454021
vt 0.887784 0.454493
vt 0.889834 0.379193
vt 0.901009 0.379932
vt 0.898464 0.454856
vt 0.882376 0.314550
vt 0.907328 0.317370
vt 0.919511 0.319263
vt 0.878548 0.378606
vt 0.912049 0.380807
vt 0.909124 0.455240
vt 0.877105 0.454210
vt 0.931439 0.321469
vt 0.894936 0.315797
vt 0.922930 0.381800
vt 0.919773 0.455674
vt 0.943080 0.323947
vt 0.933628 0.382866
vt 0.930413 0.456139
vt 0.901202 0.531221
vt 0.892796 0.531287
vt 0.891282 0.473595
vt 0.901788 0.473529
vt 0.900900 0.569740
vt 0.893661 0.569815
vt 0.884400 0.531632
vt 0.880781 0.474044
vt 0.900677 0.606667
vt 0.894143 0.606706
vt 0.876033 0.532258
vt 0.870300 0.474879
vt 0.900470 0.689234
vt 0.894312 0.689247
vt 0.867715 0.533165
vt 0.859858 0.476130
vt 0.886438 0.570065
vt 0.859466 0.534356
vt 0.849478 0.477771
vt 0.887621 0.606829
vt 0.851305 0.535831
vt 0.839178 0.479805
vt 0.888154 0.689287
vt 0.843251 0.537596
vt 0.828973 0.482234
vt 0.879249 0.570489
vt 0.835324 0.539653
vt 0.818881 0.485060
vt 0.881123 0.607032
vt 0.827533 0.542011
vt 0.808917 0.488287
vt 0.881996 0.689351
vt 0.869683 0.689545
vt 0.863528 0.689671
vt 0.861904 0.608085
vt 0.868252 0.607667
vt 0.872115 0.571087
vt 0.858102 0.572802
vt 0.851269 0.573914
vt 0.874662 0.607313
vt 0.857374 0.689812
vt 0.855631 0.608559
vt 0.875839 0.689437
vt 0.844589 0.575191
vt 0.865058 0.571859
vt 0.849445 0.609079
vt 0.851220 0.689963
vt 0.838080 0.576611
vt 0.843356 0.609617
vt 0.845065 0.690121
vt 0.723972 0.566490
vt 0.733244 0.568565
vt 0.733096 0.574880
vt 0.723636 0.576090
vt 0.750461 0.612943
vt 0.750461 0.604263
vt 0.761704 0.602280
vt 0.764673 0.610437
vt 0.791382 0.564174
vt 0.782835 0.565681
vt 0.778930 0.554953
vt 0.786447 0.550613
vt 0.764673 0.532342
vt 0.761704 0.540499
vt 0.750461 0.538516
vt 0.750461 0.529837
vt 0.733789 0.550379
vt 0.739599 0.557763
vt 0.735493 0.562606
vt 0.727489 0.557567
vt 0.760701 0.545844
vt 0.757443 0.554661
vt 0.751241 0.553459
vt 0.751327 0.544267
vt 0.777171 0.603221
vt 0.771591 0.596572
vt 0.778930 0.587826
vt 0.786447 0.592166
vt 0.735164 0.580844
vt 0.726619 0.585353
vt 0.791382 0.578605
vt 0.782835 0.577098
vt 0.777171 0.539558
vt 0.771591 0.546207
vt 0.745064 0.554598
vt 0.742089 0.545783
vt 0.739184 0.585679
vt 0.732804 0.593191
vt 0.768839 0.550724
vt 0.762846 0.557736
vt 0.814489 0.244953
vt 0.807977 0.141916
vt 0.818377 0.313424
vt 0.799542 0.246103
vt 0.789220 0.143480
vt 0.821281 0.378390
vt 0.784671 0.247765
vt 0.770549 0.145740
vt 0.823734 0.454371
vt 0.769910 0.249936
vt 0.751991 0.148694
vt 0.805580 0.314303
vt 0.755294 0.252618
vt 0.733577 0.152345
vt 0.809832 0.378976
vt 0.740855 0.255813
vt 0.715334 0.156693
vt 0.813088 0.454752
vt 0.726627 0.259525
vt 0.697291 0.161741
vt 0.792862 0.315511
vt 0.712645 0.263759
vt 0.679478 0.167493
vt 0.798442 0.379741
vt 0.698922 0.268527
vt 0.661922 0.173953
vt 0.802458 0.455247
vt 0.781252 0.456546
vt 0.770675 0.457329
vt 0.764838 0.383027
vt 0.775922 0.381778
vt 0.780258 0.317046
vt 0.755540 0.321083
vt 0.743507 0.323571
vt 0.787131 0.380679
vt 0.760113 0.458183
vt 0.753902 0.384407
vt 0.791846 0.455848
vt 0.731752 0.326360
vt 0.767804 0.318906
vt 0.743138 0.385897
vt 0.749565 0.459089
vt 0.720301 0.329411
vt 0.732566 0.387454
vt 0.739027 0.460025
vt 0.912283 0.473840
vt 0.909602 0.531436
vt 0.908134 0.569915
vt 0.922753 0.474533
vt 0.917982 0.531929
vt 0.907209 0.606768
vt 0.933182 0.475608
vt 0.926321 0.532700
vt 0.906625 0.689247
vt 0.943555 0.477065
vt 0.934601 0.533750
vt 0.915345 0.570264
vt 0.953856 0.478907
vt 0.942803 0.535080
vt 0.913722 0.606951
vt 0.964069 0.481134
vt 0.950907 0.536693
vt 0.912776 0.689286
vt 0.974178 0.483751
vt 0.958894 0.538590
vt 0.922514 0.570786
vt 0.984166 0.486760
vt 0.966745 0.540778
vt 0.920205 0.607215
vt 0.994019 0.490164
vt 0.974450 0.543263
vt 0.918921 0.689349
vt 0.931195 0.689543
vt 0.933029 0.607966
vt 0.939345 0.608440
vt 0.937323 0.689669
vt 0.929619 0.571482
vt 0.943552 0.573386
vt 0.950332 0.574588
vt 0.926645 0.607555
vt 0.945581 0.608968
vt 0.943446 0.689810
vt 0.925061 0.689436
vt 0.956953 0.575953
vt 0.936640 0.572349
vt 0.951724 0.609539
vt 0.949565 0.689962
vt 0.963395 0.577458
vt 0.957766 0.610126
vt 0.955680 0.690121
vt 0.760724 0.597618
vt 0.751248 0.599565
vt 0.750897 0.590005
vt 0.757117 0.588848
vt 0.736249 0.610437
vt 0.739217 0.602280
vt 0.709539 0.564174
vt 0.714475 0.550613
vt 0.721991 0.554953
vt 0.718087 0.565681
vt 0.736249 0.532342
vt 0.739217 0.540499
vt 0.774831 0.585139
vt 0.768894 0.592587
vt 0.762555 0.585614
vt 0.766575 0.580718
vt 0.774936 0.558004
vt 0.777909 0.566940
vt 0.768872 0.568466
vt 0.766809 0.562587
vt 0.723751 0.603221
vt 0.714475 0.592166
vt 0.721991 0.587826
vt 0.729330 0.596572
vt 0.741556 0.598099
vt 0.744652 0.588910
vt 0.709539 0.578605
vt 0.718087 0.577098
vt 0.723751 0.539558
vt 0.729330 0.546207
vt 0.777909 0.576226
vt 0.768735 0.574748
vn 0.0000 0.9932 -0.1161
vn 0.0000 0.9931 -0.1174
vn 0.3397 0.9332 -0.1174
vn 0.3397 0.9333 -0.1161
vn 0.0000 0.9966 -0.0828
vn 0.3408 0.9365 -0.0828
vn 0.6383 0.7607 -0.1174
vn 0.6384 0.7609 -0.1161
vn 0.0000 0.9997 -0.0257
vn 0.3419 0.9394 -0.0257
vn 0.8600 0.4965 -0.1174
vn 0.8602 0.4966 -0.1161
vn 0.0000 1.0000 -0.0011
vn 0.3420 0.9397 -0.0011
vn 0.9780 0.1724 -0.1174
vn 0.9781 0.1725 -0.1161
vn 0.6406 0.7634 -0.0828
vn 0.9780 -0.1724 -0.1174
vn 0.9781 -0.1725 -0.1161
vn 0.6426 0.7658 -0.0257
vn 0.8600 -0.4965 -0.1174
vn 0.8602 -0.4966 -0.1161
vn 0.6428 0.7660 -0.0011
vn 0.6383 -0.7607 -0.1174
vn 0.6384 -0.7609 -0.1161
vn 0.8631 0.4983 -0.0828
vn 0.3397 -0.9332 -0.1174
vn 0.3397 -0.9333 -0.1161
vn 0.8657 0.4998 -0.0257
vn 0.0000 -0.9931 -0.1174
vn 0.0000 -0.9932 -0.1161
vn 0.8660 0.5000 -0.0011
vn 0.9848 -0.1736 -0.0011
vn 0.9845 -0.1736 -0.0257
vn 0.8657 -0.4998 -0.0257
vn 0.8660 -0.5000 -0.0011
vn 0.9814 0.1731 -0.0828
vn 0.8631 -0.4983 -0.0828
vn 0.6406 -0.7634 -0.0828
vn 0.9845 0.1736 -0.0257
vn 0.6426 -0.7658 -0.0257
vn 0.6428 -0.7660 -0.0011
vn 0.9848 0.1736 -0.0011
vn 0.3408 -0.9365 -0.0828
vn 0.9814 -0.1731 -0.0828
vn 0.3419 -0.9394 -0.0257
vn 0.3420 -0.9397 -0.0011
vn 0.0000 -0.9966 -0.0828
vn 0.0000 -0.9997 -0.0257
vn 0.0000 -1.0000 -0.0011
vn 0.0000 -0.9932 0.1161
vn -0.3397 -0.9333 0.1161
vn -0.3397 -0.9332 0.1174
vn 0.0000 -0.9931 0.1174
vn 0.0000 -0.9966 0.0828
vn -0.3408 -0.9365 0.0828
vn -0.6384 -0.7609 0.1161
vn -0.6383 -0.7607 0.1174
vn 0.0000 -0.9997 0.0254
vn -0.3419 -0.9394 0.0254
vn -0.8602 -0.4966 0.1161
vn -0.8600 -0.4965 0.1174
vn 0.0000 -1.0000 0.0006
vn -0.3420 -0.9397 0.0006
vn -0.9781 -0.1725 0.1161
vn -0.9780 -0.1724 0.1174
vn -0.6406 -0.7634 0.0828
vn -0.9781 0.1725 0.1161
vn -0.9780 0.1724 0.1174
vn -0.6426 -0.7658 0.0254
vn -0.8602 0.4966 0.1161
vn -0.8600 0.4965 0.1174
vn -0.6428 -0.7660 0.0006
vn -0.6384 0.7609 0.1161
vn -0.6383 0.7607 0.1174
vn -0.8631 -0.4983 0.0828
vn -0.3397 0.9333 0.1161
vn -0.3397 0.9332 0.1174
vn -0.8657 -0.4998 0.0254
vn -0.0000 0.9932 0.1161
vn -0.0000 0.9931 0.1174
vn -0.8660 -0.5000 0.0006
vn -0.9848 0.1736 0.0006
vn -0.8660 0.5000 0.0006
vn -0.8657 0.4998 0.0254
vn -0.9845 0.1736 0.0254
vn -0.9814 -0.1731 0.0828
vn -0.8631 0.4983 0.0828
vn -0.6406 0.7634 0.0828
vn -0.9845 -0.1736 0.0254
vn -0.6428 0.7660 0.0006
vn -0.6426 0.7658 0.0254
vn -0.9848 -0.1736 0.0006
vn -0.3408 0.9365 0.0828
vn -0.9814 0.1731 0.0828
vn -0.3419 0.9394 0.0254
vn -0.3420 0.9397 0.0006
vn -0.0000 0.9966 0.0828
vn -0.0000 0.9997 0.0254
vn 0.0000 1.0000 0.0006
vn -0.7195 -0.4154 -0.5565
vn -0.5341 -0.6365 -0.5565
vn 0.0000 0.0000 1.0000
vn -0.8182 0.1443 -0.5565
vn -0.8182 -0.1443 -0.5565
vn -0.2842 0.7807 -0.5565
vn -0.5341 0.6365 -0.5565
vn -0.2842 -0.7807 -0.5565
vn -0.7195 0.4154 -0.5565
vn 0.0000 -0.8308 -0.5565
vn 0.0000 0.8308 -0.5565
vn -0.3397 0.9333 -0.1161
vn -0.3397 0.9332 -0.1174
vn -0.3408 0.9365 -0.0828
vn -0.6384 0.7609 -0.1161
vn -0.6383 0.7607 -0.1174
vn -0.3419 0.9394 -0.0257
vn -0.8602 0.4966 -0.1161
vn -0.8600 0.4965 -0.1174
vn -0.3420 0.9397 -0.0011
vn -0.9781 0.1725 -0.1161
vn -0.9780 0.1724 -0.1174
vn -0.6406 0.7634 -0.0828
vn -0.9781 -0.1725 -0.1161
vn -0.9780 -0.1724 -0.1174
vn -0.6426 0.7658 -0.0257
vn -0.8602 -0.4966 -0.1161
vn -0.8600 -0.4965 -0.1174
vn -0.6428 0.7660 -0.0011
vn -0.6384 -0.7609 -0.1161
vn -0.6383 -0.7607 -0.1174
vn -0.8631 0.4983 -0.0828
vn -0.3397 -0.9333 -0.1161
vn -0.3397 -0.9332 -0.1174
vn -0.8657 0.4998 -0.0257
vn -0.8660 0.5000 -0.0011
vn -0.9848 -0.1736 -0.0011
vn -0.8660 -0.5000 -0.0011
vn -0.8657 -0.4998 -0.0257
vn -0.9845 -0.1736 -0.0257
vn -0.9814 0.1731 -0.0828
vn -0.8631 -0.4983 -0.0828
vn -0.6406 -0.7634 -0.0828
vn -0.9845 0.1736 -0.0257
vn -0.6428 -0.7660 -0.0011
vn -0.6426 -0.7658 -0.0257
vn -0.9848 0.1736 -0.0011
vn -0.3408 -0.9365 -0.0828
vn -0.9814 -0.1731 -0.0828
vn -0.3419 -0.9394 -0.0257
vn -0.3420 -0.9397 -0.0011
vn 0.3397 -0.9332 0.1174
vn 0.3397 -0.9333 0.1161
vn 0.3408 -0.9365 0.0828
vn 0.6383 -0.7607 0.1174
vn 0.6384 -0.7609 0.1161
vn 0.3419 -0.9394 0.0254
vn 0.8600 -0.4965 0.1174
vn 0.8602 -0.4966 0.1161
vn 0.3420 -0.9397 0.0006
vn 0.9780 -0.1724 0.1174
vn 0.9781 -0.1725 0.1161
vn 0.6406 -0.7634 0.0828
vn 0.9780 0.1724 0.1174
vn 0.9781 0.1725 0.1161
vn 0.6426 -0.7658 0.0254
vn 0.8600 0.4965 0.1174
vn 0.8602 0.4966 0.1161
vn 0.6428 -0.7660 0.0006
vn 0.6383 0.7607 0.1174
vn 0.6384 0.7609 0.1161
vn 0.8631 -0.4983 0.0828
vn 0.3397 0.9332 0.1174
vn 0.3397 0.9333 0.1161
vn 0.8657 -0.4998 0.0254
vn 0.8660 -0.5000 0.0006
vn 0.9848 0.1736 0.0006
vn 0.9845 0.1736 0.0254
vn 0.8657 0.4998 0.0254
vn 0.8660 0.5000 0.0006
vn 0.9814 -0.1731 0.0828
vn 0.8631 0.4983 0.0828
vn 0.6406 0.7634 0.0828
vn 0.9845 -0.1736 0.0254
vn 0.6426 0.7658 0.0254
vn 0.6428 0.7660 0.0006
vn 0.9848 -0.1736 0.0006
vn 0.3408 0.9365 0.0828
vn 0.9814 0.1731 0.0828
vn 0.3419 0.9394 0.0254
vn 0.3420 0.9397 0.0006
vn 0.7195 -0.4154 -0.5565
vn 0.5341 -0.6365 -0.5565
vn 0.8182 0.1443 -0.5565
vn 0.8182 -0.1443 -0.5565
vn 0.2842 0.7807 -0.5565
vn 0.5341 0.6365 -0.5565
vn 0.2842 -0.7807 -0.5565
vn 0.7195 0.4154 -0.5565
usemtl None
s 1
f 116/1/1 84/2/2 4/3/3 31/4/4
f 117/5/5 116/1/1 31/4/4 30/6/6
f 31/4/4 4/3/3 6/7/7 28/8/8
f 118/9/9 117/5/5 30/6/6 29/10/10
f 28/8/8 6/7/7 8/11/11 25/12/12
f 83/13/13 118/9/9 29/10/10 3/14/14
f 25/12/12 8/11/11 10/15/15 22/16/16
f 30/6/6 31/4/4 28/8/8 27/17/17
f 22/16/16 10/15/15 12/18/18 19/19/19
f 29/10/10 30/6/6 27/17/17 26/20/20
f 19/19/19 12/18/18 14/21/21 32/22/22
f 3/14/14 29/10/10 26/20/20 5/23/23
f 32/22/22 14/21/21 16/24/24 35/25/25
f 27/17/17 28/8/8 25/12/12 24/26/26
f 35/25/25 16/24/24 18/27/27 38/28/28
f 26/20/20 27/17/17 24/26/26 23/29/29
f 38/28/28 18/27/27 102/30/30 128/31/31
f 5/23/23 26/20/20 23/29/29 7/32/32
f 11/33/33 1/34/34 34/35/35 13/36/36
f 24/26/26 25/12/12 22/16/16 21/37/37
f 33/38/38 32/22/22 35/25/25 36/39/39
f 23/29/29 24/26/26 21/37/37 20/40/40
f 13/36/36 34/35/35 37/41/41 15/42/42
f 7/32/32 23/29/29 20/40/40 9/43/43
f 36/39/39 35/25/25 38/28/28 39/44/44
f 21/37/37 22/16/16 19/19/19 2/45/45
f 37/41/41 36/39/39 39/44/44 40/46/46
f 20/40/40 21/37/37 2/45/45 1/34/34
f 15/42/42 37/41/41 40/46/46 17/47/47
f 9/43/43 20/40/40 1/34/34 11/33/33
f 39/44/44 38/28/28 128/31/31 129/48/48
f 34/35/35 33/38/38 36/39/39 37/41/41
f 2/45/45 19/19/19 32/22/22 33/38/38
f 40/46/46 39/44/44 129/48/48 130/49/49
f 17/47/47 40/46/46 130/49/49 101/50/50
f 1/34/34 2/45/45 33/38/38 34/35/35
f 166/51/51 71/52/52 44/53/53 134/54/54
f 167/55/55 70/56/56 71/52/52 166/51/51
f 71/52/52 68/57/57 46/58/58 44/53/53
f 168/59/59 69/60/60 70/56/56 167/55/55
f 68/57/57 65/61/61 48/62/62 46/58/58
f 133/63/63 43/64/64 69/60/60 168/59/59
f 65/61/61 62/65/65 50/66/66 48/62/62
f 70/56/56 67/67/67 68/57/57 71/52/52
f 62/65/65 59/68/68 52/69/69 50/66/66
f 69/60/60 66/70/70 67/67/67 70/56/56
f 59/68/68 72/71/71 54/72/72 52/69/69
f 43/64/64 45/73/73 66/70/70 69/60/60
f 72/71/71 75/74/74 56/75/75 54/72/72
f 67/67/67 64/76/76 65/61/61 68/57/57
f 75/74/74 78/77/77 58/78/78 56/75/75
f 66/70/70 63/79/79 64/76/76 67/67/67
f 78/77/77 178/80/80 152/81/81 58/78/78
f 45/73/73 47/82/82 63/79/79 66/70/70
f 51/83/83 53/84/84 74/85/85 41/86/86
f 64/76/76 61/87/87 62/65/65 65/61/61
f 73/88/88 76/89/89 75/74/74 72/71/71
f 63/79/79 60/90/90 61/87/87 64/76/76
f 53/84/84 55/91/91 77/92/92 74/85/85
f 47/82/82 49/93/93 60/90/90 63/79/79
f 76/89/89 79/94/94 78/77/77 75/74/74
f 61/87/87 42/95/95 59/68/68 62/65/65
f 77/92/92 80/96/96 79/94/94 76/89/89
f 60/90/90 41/86/86 42/95/95 61/87/87
f 55/91/91 57/97/97 80/96/96 77/92/92
f 49/93/93 51/83/83 41/86/86 60/90/90
f 79/94/94 179/98/98 178/80/80 78/77/77
f 74/85/85 77/92/92 76/89/89 73/88/88
f 42/95/95 73/88/88 72/71/71 59/68/68
f 80/96/96 180/99/99 179/98/98 79/94/94
f 57/97/97 151/100/100 180/99/99 80/96/96
f 41/86/86 74/85/85 73/88/88 42/95/95
f 7/101/101 47/102/101 45/103/102 5/104/102
f 84/105/103 134/106/103 44/107/103 4/108/103
f 12/109/103 52/110/103 54/111/103 14/112/103
f 18/113/103 58/114/103 152/115/103 102/116/103
f 11/117/104 51/118/104 49/119/105 9/120/105
f 17/121/106 57/122/106 55/123/107 15/124/107
f 6/125/103 46/126/103 48/127/103 8/128/103
f 5/104/102 45/103/102 43/129/108 3/130/108
f 10/131/103 50/132/103 52/110/103 12/109/103
f 16/133/103 56/134/103 58/114/103 18/113/103
f 9/120/105 49/119/105 47/102/101 7/101/101
f 15/124/107 55/123/107 53/135/109 13/136/109
f 3/130/108 43/129/108 133/137/110 83/138/110
f 4/108/103 44/107/103 46/126/103 6/125/103
f 8/128/103 48/127/103 50/132/103 10/131/103
f 14/112/103 54/111/103 56/134/103 16/133/103
f 13/136/109 53/135/109 51/118/104 11/117/104
f 101/139/111 151/140/111 57/122/106 17/121/106
f 116/1/1 115/141/112 86/142/113 84/2/2
f 117/5/5 114/143/114 115/141/112 116/1/1
f 115/141/112 112/144/115 88/145/116 86/142/113
f 118/9/9 113/146/117 114/143/114 117/5/5
f 112/144/115 109/147/118 90/148/119 88/145/116
f 83/13/13 85/149/120 113/146/117 118/9/9
f 109/147/118 106/150/121 92/151/122 90/148/119
f 114/143/114 111/152/123 112/144/115 115/141/112
f 106/150/121 103/153/124 94/154/125 92/151/122
f 113/146/117 110/155/126 111/152/123 114/143/114
f 103/153/124 119/156/127 96/157/128 94/154/125
f 85/149/120 87/158/129 110/155/126 113/146/117
f 119/156/127 122/159/130 98/160/131 96/157/128
f 111/152/123 108/161/132 109/147/118 112/144/115
f 122/159/130 125/162/133 100/163/134 98/160/131
f 110/155/126 107/164/135 108/161/132 111/152/123
f 125/162/133 128/165/31 102/166/30 100/163/134
f 87/158/129 89/167/136 107/164/135 110/155/126
f 93/168/137 95/169/138 121/170/139 81/171/140
f 108/161/132 105/172/141 106/150/121 109/147/118
f 120/173/142 123/174/143 122/159/130 119/156/127
f 107/164/135 104/175/144 105/172/141 108/161/132
f 95/169/138 97/176/145 124/177/146 121/170/139
f 89/167/136 91/178/147 104/175/144 107/164/135
f 123/174/143 126/179/148 125/162/133 122/159/130
f 105/172/141 82/180/149 103/153/124 106/150/121
f 124/177/146 127/181/150 126/179/148 123/174/143
f 104/175/144 81/171/140 82/180/149 105/172/141
f 97/176/145 99/182/151 127/181/150 124/177/146
f 91/178/147 93/168/137 81/171/140 104/175/144
f 126/179/148 129/183/48 128/165/31 125/162/133
f 121/170/139 124/177/146 123/174/143 120/173/142
f 82/180/149 120/173/142 119/156/127 103/153/124
f 127/181/150 130/184/49 129/183/48 126/179/148
f 99/182/151 101/185/50 130/184/49 127/181/150
f 81/171/140 121/170/139 120/173/142 82/180/149
f 166/51/51 134/54/54 136/186/152 165/187/153
f 167/55/55 166/51/51 165/187/153 164/188/154
f 165/187/153 136/186/152 138/189/155 162/190/156
f 168/59/59 167/55/55 164/188/154 163/191/157
f 162/190/156 138/189/155 140/192/158 159/193/159
f 133/63/63 168/59/59 163/191/157 135/194/160
f 159/193/159 140/192/158 142/195/161 156/196/162
f 164/188/154 165/187/153 162/190/156 161/197/163
f 156/196/162 142/195/161 144/198/164 153/199/165
f 163/191/157 164/188/154 161/197/163 160/200/166
f 153/199/165 144/198/164 146/201/167 169/202/168
f 135/194/160 163/191/157 160/200/166 137/203/169
f 169/202/168 146/201/167 148/204/170 172/205/171
f 161/197/163 162/190/156 159/193/159 158/206/172
f 172/205/171 148/204/170 150/207/173 175/208/174
f 160/200/166 161/197/163 158/206/172 157/209/175
f 175/208/174 150/207/173 152/210/81 178/211/80
f 137/203/169 160/200/166 157/209/175 139/212/176
f 143/213/177 131/214/178 171/215/179 145/216/180
f 158/206/172 159/193/159 156/196/162 155/217/181
f 170/218/182 169/202/168 172/205/171 173/219/183
f 157/209/175 158/206/172 155/217/181 154/220/184
f 145/216/180 171/215/179 174/221/185 147/222/186
f 139/212/176 157/209/175 154/220/184 141/223/187
f 173/219/183 172/205/171 175/208/174 176/224/188
f 155/217/181 156/196/162 153/199/165 132/225/189
f 174/221/185 173/219/183 176/224/188 177/226/190
f 154/220/184 155/217/181 132/225/189 131/214/178
f 147/222/186 174/221/185 177/226/190 149/227/191
f 141/223/187 154/220/184 131/214/178 143/213/177
f 176/224/188 175/208/174 178/211/80 179/228/98
f 171/215/179 170/218/182 173/219/183 174/221/185
f 132/225/189 153/199/165 169/202/168 170/218/182
f 177/226/190 176/224/188 179/228/98 180/229/99
f 149/227/191 177/226/190 180/229/99 151/230/100
f 131/214/178 132/225/189 170/218/182 171/215/179
f 89/231/192 87/232/193 137/233/193 139/234/192
f 84/105/103 86/235/103 136/236/103 134/106/103
f 94/237/103 96/238/103 146/239/103 144/240/103
f 100/241/103 102/116/103 152/115/103 150/242/103
f 93/243/194 91/244/195 141/245/195 143/246/194
f 99/247/196 97/248/197 147/249/197 149/250/196
f 88/251/103 90/252/103 140/253/103 138/254/103
f 87/232/193 85/255/198 135/256/198 137/233/193
f 92/257/103 94/237/103 144/240/103 142/258/103
f 98/259/103 100/241/103 150/242/103 148/260/103
f 91/244/195 89/231/192 139/234/192 141/245/195
f 97/248/197 95/261/199 145/262/199 147/249/197
f 85/255/198 83/138/110 133/137/110 135/256/198
f 86/235/103 88/251/103 138/254/103 136/236/103
f 90/252/103 92/257/103 142/258/103 140/253/103
f 96/238/103 98/259/103 148/260/103 146/239/103
f 95/261/199 93/243/194 143/246/194 145/262/199
f 101/139/111 99/247/196 149/250/196 151/140/111
