# Blender v2.79 (sub 0) OBJ File: 'tank - Kopie (2).blend'
# www.blender.org
mtllib rohrobj.mtl
o Cube.002_Cube.000
v 0.099890 3.008174 0.388660
v -0.099754 3.008174 0.388660
v 0.099890 2.801530 0.390145
v -0.099754 2.801530 0.390145
v 0.116406 3.056037 4.669465
v -0.121775 3.056037 4.669465
v 0.116406 2.809504 4.671238
v -0.121775 2.809504 4.671238
v 0.099890 3.034278 4.020696
v 0.116406 3.052567 4.186703
v 0.116406 2.806035 4.188475
v 0.099890 2.827634 4.022181
v -0.099754 2.829149 4.232945
v -0.099754 2.827634 4.022181
v -0.099754 3.034278 4.020696
v -0.121775 3.052567 4.186703
vn 1.0000 0.0000 0.0000
vn 0.0000 0.0072 1.0000
vn 0.0000 -0.9990 -0.0448
vn 0.0000 1.0000 -0.0072
vn -0.9952 -0.0979 0.0007
vn -1.0000 0.0000 0.0000
vn -0.9913 -0.0009 -0.1314
vn 0.0000 0.9940 -0.1095
vn 0.0000 -1.0000 0.0072
vn -0.1049 -0.9945 0.0071
vn 0.9951 -0.0007 -0.0989
vn -0.9987 -0.0004 -0.0502
vn 0.0000 -0.9917 -0.1288
usemtl None
s off
f 11//1 5//1 7//1
f 5//2 8//2 7//2
f 13//3 7//3 8//3
f 16//4 5//4 10//4
f 13//5 6//5 16//5
f 4//6 15//6 2//6
f 14//7 16//7 15//7
f 2//4 9//4 1//4
f 15//8 10//8 9//8
f 3//9 14//9 4//9
f 14//10 11//10 13//10
f 1//1 12//1 3//1
f 12//11 10//11 11//11
f 11//1 10//1 5//1
f 5//2 6//2 8//2
f 13//10 11//10 7//10
f 16//4 6//4 5//4
f 13//12 8//12 6//12
f 4//6 14//6 15//6
f 14//5 13//5 16//5
f 2//4 15//4 9//4
f 15//8 16//8 10//8
f 3//9 12//9 14//9
f 14//13 12//13 11//13
f 1//1 9//1 12//1
f 12//11 9//11 10//11
