# Blender v2.79 (sub 0) OBJ File: 'tank - Kopie.blend'
# www.blender.org
mtllib .towerobj.mtl
o Cube.001_Cube.002
v -0.871288 2.499629 -0.422053
v -0.877395 3.351309 -0.869793
v -0.871288 2.499629 -2.508556
v -0.841421 3.351309 -2.403585
v 0.871288 2.499629 -0.422053
v 0.877395 3.351309 -0.869793
v 0.871288 2.499629 -2.508556
v 0.841421 3.351309 -2.403585
v -0.899609 2.718979 0.497609
v -0.957561 2.718979 -3.392334
v 0.957561 2.718979 -3.392334
v 0.899609 2.718979 0.497609
v -1.000000 3.200310 -0.159735
v -0.823734 3.200310 -4.815772
v 0.823734 3.200310 -4.815772
v 1.000000 3.200310 -0.159735
v -1.000000 2.993964 -4.803810
v 1.000000 2.993964 -4.803810
v 1.000000 2.993964 0.409147
v -1.000000 2.993964 0.409147
v -0.944760 2.797244 -4.822765
v 0.944760 2.797244 -4.822765
v 0.970288 2.797244 0.472432
v -0.970288 2.797244 0.472432
v -1.000000 3.265278 -0.248461
v -0.889857 3.265278 -2.569371
v 0.889857 3.265278 -2.569371
v 1.000000 3.265278 -0.248461
v 0.309040 2.499629 -2.662672
v -0.357627 2.499629 -2.662672
v -0.357627 3.351309 -2.543056
v 0.309040 3.351309 -2.543056
v -0.357627 2.499629 -0.267937
v 0.309040 2.499629 -0.267937
v 0.309040 3.351309 -0.463173
v -0.357627 3.351309 -0.463173
v 0.309040 2.718979 0.497609
v -0.357627 2.718979 0.497609
v -0.357627 2.718979 -3.392334
v 0.309040 2.718979 -3.392334
v 0.309040 3.200310 0.016153
v -0.357627 3.200310 0.016153
v -0.357627 3.200310 -4.815772
v 0.309040 3.200310 -4.815772
v -0.357627 2.993964 -4.803810
v 0.309040 2.993964 -4.803810
v 0.099890 2.993964 0.409147
v -0.099754 2.993964 0.409147
v 0.099890 2.797244 0.472432
v -0.099754 2.797244 0.472432
v -0.357627 2.797244 -4.822765
v 0.309040 2.797244 -4.822765
v 0.309040 3.265278 -0.248461
v -0.357627 3.265278 -0.248461
v -0.357627 3.265278 -3.209094
v 0.309040 3.265278 -3.209094
v 0.099890 2.954875 0.287637
v -0.099754 2.954875 0.287637
v 0.099890 2.758154 0.350921
v -0.099754 2.758154 0.350921
vn -0.6782 0.7341 -0.0322
vn 0.1397 0.9820 -0.1268
vn 0.6782 0.7341 -0.0322
vn 0.0000 0.9283 0.3719
vn 0.0000 -1.0000 0.0000
vn 0.0000 1.0000 0.0000
vn -0.0688 -0.9709 0.2294
vn 0.9306 -0.3660 0.0000
vn 0.0643 -0.9700 -0.2345
vn -0.9306 -0.3660 0.0000
vn 0.0000 0.8854 0.4649
vn 1.0000 -0.0000 0.0000
vn 0.0000 -0.0579 -0.9983
vn -1.0000 -0.0000 0.0000
vn -0.9885 -0.1508 -0.0048
vn 0.0000 0.0959 -0.9954
vn 0.9885 -0.1508 -0.0048
vn 0.0000 0.3062 0.9520
vn 0.7439 -0.6682 0.0111
vn 0.0000 -0.9985 -0.0546
vn -0.7439 -0.6682 0.0111
vn -0.0651 0.9691 0.2379
vn 0.9595 0.2794 -0.0363
vn 0.0000 0.9992 -0.0404
vn -0.9595 0.2794 -0.0363
vn 0.0606 0.9694 0.2380
vn 0.0000 0.9712 0.2384
vn -0.0702 -0.9697 -0.2338
vn 0.0000 -0.9577 -0.2879
vn 0.0630 -0.9712 0.2297
vn 0.0000 -0.9613 0.2754
vn -0.1522 0.9802 -0.1266
vn 0.0000 0.9918 -0.1281
vn 0.0000 0.9520 -0.3062
vn 0.0000 -0.9520 0.3062
vn -0.8542 0.5195 -0.0200
vn 0.1130 0.8950 -0.4314
vn 0.8542 0.5195 -0.0200
vn -0.0928 0.9886 0.1186
vn 0.9820 -0.1881 0.0146
vn -0.9820 -0.1881 0.0146
vn -0.0930 0.9360 0.3395
vn 0.7609 0.6483 -0.0288
vn -0.7609 0.6483 -0.0288
vn -0.9628 -0.2703 0.0000
vn 0.9628 -0.2703 0.0000
vn 0.9972 0.0752 -0.0048
vn -0.9972 0.0752 -0.0048
vn 0.0000 0.8068 0.5908
vn 0.9968 -0.0646 -0.0473
vn 0.0329 0.9990 -0.0299
vn -0.9968 -0.0646 -0.0473
vn -0.0360 0.9989 -0.0299
vn 0.0865 0.9365 0.3397
vn 0.0859 0.9891 0.1200
vn -0.1235 0.8951 -0.4284
usemtl None
s off
f 2//1 26//1 25//1
f 32//2 27//2 56//2
f 27//3 6//3 28//3
f 36//4 25//4 54//4
f 7//5 34//5 29//5
f 31//6 2//6 36//6
f 33//7 9//7 1//7
f 11//8 5//8 7//8
f 29//9 11//9 7//9
f 1//10 10//10 3//10
f 42//11 20//11 48//11
f 18//12 16//12 19//12
f 46//13 15//13 18//13
f 13//14 17//14 20//14
f 20//15 21//15 24//15
f 46//16 22//16 52//16
f 22//17 19//17 23//17
f 48//18 24//18 50//18
f 38//18 24//18 9//18
f 11//19 23//19 12//19
f 40//20 22//20 11//20
f 24//21 10//21 9//21
f 54//22 13//22 42//22
f 27//23 16//23 15//23
f 56//24 15//24 44//24
f 13//25 26//25 14//25
f 14//24 55//24 43//24
f 55//24 44//24 43//24
f 16//26 53//26 41//26
f 53//27 42//27 41//27
f 21//20 39//20 10//20
f 51//20 40//20 39//20
f 23//18 37//18 12//18
f 37//18 50//18 38//18
f 23//18 47//18 49//18
f 21//16 45//16 51//16
f 45//16 52//16 51//16
f 14//13 45//13 17//13
f 43//13 46//13 45//13
f 19//11 41//11 47//11
f 41//11 48//11 47//11
f 10//28 30//28 3//28
f 39//29 29//29 30//29
f 12//30 34//30 5//30
f 37//31 33//31 34//31
f 32//6 6//6 8//6
f 31//6 35//6 32//6
f 30//5 1//5 3//5
f 29//5 33//5 30//5
f 28//4 35//4 53//4
f 35//4 54//4 53//4
f 26//32 31//32 55//32
f 31//33 56//33 55//33
f 47//14 59//14 49//14
f 60//18 57//18 58//18
f 49//34 60//34 50//34
f 48//35 57//35 47//35
f 48//12 60//12 58//12
f 2//36 4//36 26//36
f 32//37 8//37 27//37
f 27//38 8//38 6//38
f 36//39 2//39 25//39
f 7//5 5//5 34//5
f 31//6 4//6 2//6
f 33//31 38//31 9//31
f 11//40 12//40 5//40
f 29//29 40//29 11//29
f 1//41 9//41 10//41
f 42//42 13//42 20//42
f 18//43 15//43 16//43
f 46//13 44//13 15//13
f 13//44 14//44 17//44
f 20//45 17//45 21//45
f 46//16 18//16 22//16
f 22//46 18//46 19//46
f 48//18 20//18 24//18
f 38//18 50//18 24//18
f 11//47 22//47 23//47
f 40//20 52//20 22//20
f 24//48 21//48 10//48
f 54//49 25//49 13//49
f 27//50 28//50 16//50
f 56//51 27//51 15//51
f 13//52 25//52 26//52
f 14//53 26//53 55//53
f 55//24 56//24 44//24
f 16//49 28//49 53//49
f 53//27 54//27 42//27
f 21//20 51//20 39//20
f 51//20 52//20 40//20
f 23//18 49//18 37//18
f 37//18 49//18 50//18
f 23//18 19//18 47//18
f 21//16 17//16 45//16
f 45//16 46//16 52//16
f 14//13 43//13 45//13
f 43//13 44//13 46//13
f 19//54 16//54 41//54
f 41//11 42//11 48//11
f 10//29 39//29 30//29
f 39//29 40//29 29//29
f 12//31 37//31 34//31
f 37//31 38//31 33//31
f 32//6 35//6 6//6
f 31//6 36//6 35//6
f 30//5 33//5 1//5
f 29//5 34//5 33//5
f 28//55 6//55 35//55
f 35//4 36//4 54//4
f 26//56 4//56 31//56
f 31//33 32//33 56//33
f 47//14 57//14 59//14
f 60//18 59//18 57//18
f 49//34 59//34 60//34
f 48//35 58//35 57//35
f 48//12 50//12 60//12
